Weltraum-Regular.ufo
<glyph name="exclam" format="2">
	<advance width="290"/>
	<unicode hex="0021"/>
	<outline>
		<contour>
			<point x="108" y="719" type="curve" smooth="yes"/>
			<point x="212" y="719" type="line" smooth="yes"/>
			<point x="216.8" y="719"/>
			<point x="220" y="715.8"/>
			<point x="220" y="711" type="curve" smooth="yes"/>
			<point x="220" y="248" type="line" smooth="yes"/>
			<point x="220" y="243.2"/>
			<point x="216.8" y="240"/>
			<point x="212" y="240" type="curve" smooth="yes"/>
			<point x="108" y="240" type="line" smooth="yes"/>
			<point x="103.2" y="240"/>
			<point x="100" y="243.2"/>
			<point x="100" y="248" type="curve" smooth="yes"/>
			<point x="100" y="711" type="line" smooth="yes"/>
			<point x="100" y="715.8"/>
			<point x="103.2" y="719"/>
		</contour>
		<contour>
			<point x="108" y="120" type="curve" smooth="yes"/>
			<point x="212" y="120" type="line" smooth="yes"/>
			<point x="216.8" y="120"/>
			<point x="220" y="116.8"/>
			<point x="220" y="112" type="curve" smooth="yes"/>
			<point x="220" y="8" type="line" smooth="yes"/>
			<point x="220" y="3.2"/>
			<point x="216.8" y="0"/>
			<point x="212" y="0" type="curve" smooth="yes"/>
			<point x="108" y="0" type="line" smooth="yes"/>
			<point x="103.2" y="0"/>
			<point x="100" y="3.2"/>
			<point x="100" y="8" type="curve" smooth="yes"/>
			<point x="100" y="112" type="line" smooth="yes"/>
			<point x="100" y="116.8"/>
			<point x="103.2" y="120"/>
		</contour>
	</outline>
</glyph>
<glyph name="comma" format="2">
	<advance width="276.64"/>
	<unicode hex="002C"/>
	<outline>
		<contour>
			<point x="106.295" y="124.834" type="curve" smooth="yes"/>
			<point x="199.594" y="113.377" type="line" smooth="yes"/>
			<point x="204.358" y="112.792"/>
			<point x="207.144" y="109.226"/>
			<point x="206.56" y="104.462" type="curve" smooth="yes"/>
			<point x="179.26" y="-117.868" type="line" smooth="yes"/>
			<point x="178.675" y="-122.633"/>
			<point x="175.109" y="-125.419"/>
			<point x="170.345" y="-124.834" type="curve" smooth="yes"/>
			<point x="77.046" y="-113.377" type="line" smooth="yes"/>
			<point x="72.282" y="-112.792"/>
			<point x="69.496" y="-109.226"/>
			<point x="70.08" y="-104.462" type="curve" smooth="yes"/>
			<point x="97.38" y="117.868" type="line" smooth="yes"/>
			<point x="97.965" y="122.633"/>
			<point x="101.531" y="125.419"/>
		</contour>
	</outline>
</glyph>
<glyph name="hyphen" format="2">
	<advance width="340"/>
	<unicode hex="002D"/>
	<outline>
		<contour>
			<point x="50" y="289" type="curve" smooth="yes"/>
			<point x="50" y="391" type="line" smooth="yes"/>
			<point x="50" y="395.8"/>
			<point x="53.2" y="399"/>
			<point x="58" y="399" type="curve" smooth="yes"/>
			<point x="282" y="399" type="line" smooth="yes"/>
			<point x="286.8" y="399"/>
			<point x="290" y="395.8"/>
			<point x="290" y="391" type="curve" smooth="yes"/>
			<point x="290" y="289" type="line" smooth="yes"/>
			<point x="290" y="284.2"/>
			<point x="286.8" y="281"/>
			<point x="282" y="281" type="curve" smooth="yes"/>
			<point x="58" y="281" type="line" smooth="yes"/>
			<point x="53.2" y="281"/>
			<point x="50" y="284.2"/>
		</contour>
	</outline>
</glyph>
<glyph name="zero" format="2">
	<advance width="590"/>
	<unicode hex="0030"/>
	<outline>
		<contour>
			<point x="280" y="110" type="curve" smooth="yes"/>
			<point x="280" y="8" type="line" smooth="yes"/>
			<point x="280" y="3.2"/>
			<point x="276.8" y="0"/>
			<point x="272" y="0" type="curve" smooth="yes"/>
			<point x="130.451" y="0" type="line" smooth="yes"/>
			<point x="94.18" y="0"/>
			<point x="70" y="24.18"/>
			<point x="70" y="60.451" type="curve" smooth="yes"/>
			<point x="70" y="659.549" type="line" smooth="yes"/>
			<point x="70" y="695.82"/>
			<point x="94.18" y="720"/>
			<point x="130.451" y="720" type="curve" smooth="yes"/>
			<point x="459.549" y="720" type="line" smooth="yes"/>
			<point x="495.82" y="720"/>
			<point x="520" y="695.82"/>
			<point x="520" y="659.549" type="curve" smooth="yes"/>
			<point x="520" y="60.451" type="line" smooth="yes"/>
			<point x="520" y="24.18"/>
			<point x="495.82" y="0"/>
			<point x="459.549" y="0" type="curve" smooth="yes"/>
			<point x="408" y="0" type="line" smooth="yes"/>
			<point x="403.2" y="0"/>
			<point x="400" y="3.2"/>
			<point x="400" y="8" type="curve" smooth="yes"/>
			<point x="400" y="602" type="line"/>
			<point x="190" y="602" type="line"/>
			<point x="190" y="118" type="line"/>
			<point x="272" y="118" type="line" smooth="yes"/>
			<point x="276.8" y="118"/>
			<point x="280" y="114.8"/>
		</contour>
	</outline>
</glyph>
<glyph name="one" format="2">
	<advance width="350"/>
	<unicode hex="0031"/>
	<outline>
		<contour>
			<point x="48" y="720" type="curve" smooth="yes"/>
			<point x="219.55" y="720" type="line" smooth="yes"/>
			<point x="255.82" y="720"/>
			<point x="280" y="695.82"/>
			<point x="280" y="659.549" type="curve" smooth="yes"/>
			<point x="280" y="8" type="line" smooth="yes"/>
			<point x="280" y="3.2"/>
			<point x="276.8" y="0"/>
			<point x="272" y="0" type="curve" smooth="yes"/>
			<point x="168" y="0" type="line" smooth="yes"/>
			<point x="163.2" y="0"/>
			<point x="160" y="3.2"/>
			<point x="160" y="8" type="curve" smooth="yes"/>
			<point x="160" y="602" type="line"/>
			<point x="48" y="602" type="line" smooth="yes"/>
			<point x="43.2" y="602"/>
			<point x="40" y="605.2"/>
			<point x="40" y="610" type="curve" smooth="yes"/>
			<point x="40" y="712" type="line" smooth="yes"/>
			<point x="40" y="716.8"/>
			<point x="43.2" y="720"/>
		</contour>
	</outline>
</glyph>
<glyph name="two" format="2">
	<advance width="550"/>
	<unicode hex="0032"/>
	<outline>
		<contour>
			<point x="120.451" y="0" type="curve" smooth="yes"/>
			<point x="492" y="0" type="line" smooth="yes"/>
			<point x="496.8" y="0"/>
			<point x="500" y="3.2"/>
			<point x="500" y="8" type="curve" smooth="yes"/>
			<point x="500" y="110" type="line" smooth="yes"/>
			<point x="500" y="114.8"/>
			<point x="496.8" y="118"/>
			<point x="492" y="118" type="curve" smooth="yes"/>
			<point x="180" y="118" type="line"/>
			<point x="180" y="332" type="line" smooth="yes"/>
			<point x="180" y="336.8"/>
			<point x="176.8" y="340"/>
			<point x="172" y="340" type="curve" smooth="yes"/>
			<point x="120.451" y="340" type="line" smooth="yes"/>
			<point x="84.18" y="340"/>
			<point x="60" y="315.82"/>
			<point x="60" y="279.549" type="curve" smooth="yes"/>
			<point x="60" y="60.451" type="line" smooth="yes"/>
			<point x="60" y="24.18"/>
			<point x="84.181" y="0"/>
		</contour>
		<contour>
			<point x="368" y="340" type="curve" smooth="yes"/>
			<point x="419.549" y="340" type="line" smooth="yes"/>
			<point x="455.82" y="340"/>
			<point x="480" y="364.181"/>
			<point x="480" y="400.452" type="curve" smooth="yes"/>
			<point x="480" y="659.548" type="line" smooth="yes"/>
			<point x="480" y="695.819"/>
			<point x="455.819" y="720"/>
			<point x="419.549" y="720" type="curve" smooth="yes"/>
			<point x="78.001" y="720" type="line" smooth="yes"/>
			<point x="73.2" y="720"/>
			<point x="70" y="716.8"/>
			<point x="70" y="712" type="curve" smooth="yes"/>
			<point x="70" y="610" type="line" smooth="yes"/>
			<point x="70" y="605.2"/>
			<point x="73.2" y="602"/>
			<point x="78" y="602" type="curve" smooth="yes"/>
			<point x="360" y="602" type="line"/>
			<point x="360" y="348" type="line" smooth="yes"/>
			<point x="360" y="343.2"/>
			<point x="363.2" y="340"/>
		</contour>
	</outline>
</glyph>
<glyph name="four" format="2">
	<advance width="550"/>
	<unicode hex="0034"/>
	<outline>
		<contour>
			<point x="70" y="720" type="line"/>
			<point x="70" y="282" type="line"/>
			<point x="360" y="282" type="line"/>
			<point x="360" y="0" type="line"/>
			<point x="480" y="0" type="line"/>
			<point x="480" y="398" type="line"/>
			<point x="190" y="398" type="line"/>
			<point x="190" y="720" type="line"/>
		</contour>
	</outline>
</glyph>
<glyph name="seven" format="2">
	<advance width="530"/>
	<unicode hex="0037"/>
	<outline>
		<contour>
			<point x="399.548" y="720" type="curve" smooth="yes"/>
			<point x="68" y="720" type="line" smooth="yes"/>
			<point x="63.2" y="720"/>
			<point x="60" y="716.8"/>
			<point x="60" y="712" type="curve" smooth="yes"/>
			<point x="60" y="610" type="line" smooth="yes"/>
			<point x="60" y="605.2"/>
			<point x="63.2" y="602"/>
			<point x="68" y="602" type="curve" smooth="yes"/>
			<point x="340" y="602" type="line"/>
			<point x="340" y="8" type="line" smooth="yes"/>
			<point x="340" y="3.2"/>
			<point x="343.2" y="0"/>
			<point x="348" y="0" type="curve" smooth="yes"/>
			<point x="452" y="0" type="line" smooth="yes"/>
			<point x="456.8" y="0"/>
			<point x="460" y="3.2"/>
			<point x="460" y="8" type="curve" smooth="yes"/>
			<point x="460" y="659.549" type="line" smooth="yes"/>
			<point x="460" y="695.82"/>
			<point x="435.819" y="720"/>
		</contour>
	</outline>
</glyph>
<glyph name="eight" format="2">
	<advance width="600"/>
	<unicode hex="0038"/>
	<outline>
		<contour>
			<point x="418" y="419" type="curve" smooth="yes"/>
			<point x="470" y="419" type="line" smooth="yes"/>
			<point x="506" y="419"/>
			<point x="530" y="443"/>
			<point x="530" y="479" type="curve" smooth="yes"/>
			<point x="530" y="659.549" type="line" smooth="yes"/>
			<point x="530" y="695.82"/>
			<point x="505.82" y="720"/>
			<point x="469.549" y="720" type="curve" smooth="yes"/>
			<point x="130.451" y="720" type="line" smooth="yes"/>
			<point x="94.18" y="720"/>
			<point x="70" y="695.82"/>
			<point x="70" y="659.549" type="curve" smooth="yes"/>
			<point x="70" y="479" type="line" smooth="yes"/>
			<point x="70" y="443"/>
			<point x="94" y="419"/>
			<point x="130" y="419" type="curve" smooth="yes"/>
			<point x="182" y="419" type="line" smooth="yes"/>
			<point x="186.8" y="419"/>
			<point x="190" y="422.2"/>
			<point x="190" y="427" type="curve" smooth="yes"/>
			<point x="190" y="602" type="line"/>
			<point x="410" y="602" type="line"/>
			<point x="410" y="427" type="line" smooth="yes"/>
			<point x="410" y="422.2"/>
			<point x="413.2" y="419"/>
		</contour>
		<contour>
			<point x="530" y="60" type="curve" smooth="yes"/>
			<point x="530" y="239" type="line" smooth="yes"/>
			<point x="530" y="275"/>
			<point x="506" y="299"/>
			<point x="470" y="299" type="curve" smooth="yes"/>
			<point x="418" y="299" type="line" smooth="yes"/>
			<point x="413.2" y="299"/>
			<point x="410" y="295.8"/>
			<point x="410" y="291" type="curve" smooth="yes"/>
			<point x="410" y="118" type="line"/>
			<point x="190" y="118" type="line"/>
			<point x="190" y="291" type="line" smooth="yes"/>
			<point x="190" y="295.8"/>
			<point x="186.8" y="299"/>
			<point x="182" y="299" type="curve" smooth="yes"/>
			<point x="130" y="299" type="line" smooth="yes"/>
			<point x="94" y="299"/>
			<point x="70" y="275"/>
			<point x="70" y="239" type="curve" smooth="yes"/>
			<point x="70" y="60" type="line" smooth="yes"/>
			<point x="70" y="24"/>
			<point x="94" y="0"/>
			<point x="130" y="0" type="curve" smooth="yes"/>
			<point x="470" y="0" type="line" smooth="yes"/>
			<point x="506" y="0"/>
			<point x="530" y="24"/>
		</contour>
	</outline>
</glyph>
<glyph name="colon" format="2">
	<advance width="290"/>
	<unicode hex="003A"/>
	<outline>
		<contour>
			<point x="108" y="419" type="curve" smooth="yes"/>
			<point x="212" y="419" type="line" smooth="yes"/>
			<point x="216.8" y="419"/>
			<point x="220" y="415.8"/>
			<point x="220" y="411" type="curve" smooth="yes"/>
			<point x="220" y="309" type="line" smooth="yes"/>
			<point x="220" y="304.2"/>
			<point x="216.8" y="301"/>
			<point x="212" y="301" type="curve" smooth="yes"/>
			<point x="108" y="301" type="line" smooth="yes"/>
			<point x="103.2" y="301"/>
			<point x="100" y="304.2"/>
			<point x="100" y="309" type="curve" smooth="yes"/>
			<point x="100" y="411" type="line" smooth="yes"/>
			<point x="100" y="415.8"/>
			<point x="103.2" y="419"/>
		</contour>
		<contour>
			<point x="108" y="118" type="curve" smooth="yes"/>
			<point x="212" y="118" type="line" smooth="yes"/>
			<point x="216.8" y="118"/>
			<point x="220" y="114.8"/>
			<point x="220" y="110" type="curve" smooth="yes"/>
			<point x="220" y="8" type="line" smooth="yes"/>
			<point x="220" y="3.2"/>
			<point x="216.8" y="0"/>
			<point x="212" y="0" type="curve" smooth="yes"/>
			<point x="108" y="0" type="line" smooth="yes"/>
			<point x="103.2" y="0"/>
			<point x="100" y="3.2"/>
			<point x="100" y="8" type="curve" smooth="yes"/>
			<point x="100" y="110" type="line" smooth="yes"/>
			<point x="100" y="114.8"/>
			<point x="103.2" y="118"/>
		</contour>
	</outline>
</glyph>
<glyph name="A" format="2">
	<advance width="577.65"/>
	<unicode hex="0041"/>
	<outline>
		<contour>
			<point x="145.097" y="660.182" type="curve" smooth="yes"/>
			<point x="50.119" y="8.907" type="line" smooth="yes"/>
			<point x="49.34" y="3.563"/>
			<point x="52.42" y="0"/>
			<point x="57.82" y="0" type="curve" smooth="yes"/>
			<point x="167.82" y="0" type="line" smooth="yes"/>
			<point x="172.62" y="0"/>
			<point x="176.207" y="3.177"/>
			<point x="176.786" y="7.942" type="curve" smooth="yes"/>
			<point x="248.82" y="600" type="line"/>
			<point x="328.82" y="600" type="line"/>
			<point x="400.854" y="7.942" type="line" smooth="yes"/>
			<point x="401.433" y="3.177"/>
			<point x="405.02" y="0"/>
			<point x="409.82" y="0" type="curve" smooth="yes"/>
			<point x="519.82" y="0" type="line" smooth="yes"/>
			<point x="525.22" y="0"/>
			<point x="528.306" y="3.563"/>
			<point x="527.534" y="8.908" type="curve" smooth="yes"/>
			<point x="433.462" y="660.17" type="line" smooth="yes"/>
			<point x="428.277" y="696.068"/>
			<point x="400.64" y="720"/>
			<point x="364.369" y="720" type="curve" smooth="yes"/>
			<point x="214.272" y="720" type="line" smooth="yes"/>
			<point x="178.001" y="720"/>
			<point x="150.331" y="696.073"/>
		</contour>
	</outline>
</glyph>
<glyph name="B" format="2">
	<advance width="610"/>
	<unicode hex="0042"/>
	<outline>
		<contour>
			<point x="60" y="610" type="curve" smooth="yes"/>
			<point x="60" y="712" type="line" smooth="yes"/>
			<point x="60" y="716.8"/>
			<point x="63.2" y="720"/>
			<point x="68" y="720" type="curve" smooth="yes"/>
			<point x="320.012" y="720" type="line" smooth="yes"/>
			<point x="356.005" y="720"/>
			<point x="380" y="696.005"/>
			<point x="380" y="660.013" type="curve" smooth="yes"/>
			<point x="380" y="439" type="line"/>
			<point x="480.012" y="439" type="line" smooth="yes"/>
			<point x="516.005" y="439"/>
			<point x="540" y="415.005"/>
			<point x="540" y="379.012" type="curve" smooth="yes"/>
			<point x="540" y="59.988" type="line" smooth="yes"/>
			<point x="540" y="23.995"/>
			<point x="516.005" y="0"/>
			<point x="480.012" y="0" type="curve" smooth="yes"/>
			<point x="68" y="0" type="line" smooth="yes"/>
			<point x="63.2" y="0"/>
			<point x="60" y="3.2"/>
			<point x="60" y="8" type="curve" smooth="yes"/>
			<point x="60" y="110" type="line" smooth="yes"/>
			<point x="60" y="114.8"/>
			<point x="63.2" y="118"/>
			<point x="68" y="118" type="curve" smooth="yes"/>
			<point x="420" y="118" type="line"/>
			<point x="420" y="321" type="line"/>
			<point x="268" y="321" type="line" smooth="yes"/>
			<point x="263.2" y="321"/>
			<point x="260" y="324.2"/>
			<point x="260" y="329" type="curve" smooth="yes"/>
			<point x="260" y="602" type="line"/>
			<point x="68" y="602" type="line" smooth="yes"/>
			<point x="63.2" y="602"/>
			<point x="60" y="605.2"/>
		</contour>
	</outline>
</glyph>
<glyph name="D" format="2">
	<advance width="620"/>
	<unicode hex="0044"/>
	<outline>
		<contour>
			<point x="70" y="8" type="curve" smooth="yes"/>
			<point x="70" y="472.251" type="line" smooth="yes"/>
			<point x="70" y="476.901"/>
			<point x="73.099" y="480"/>
			<point x="77.749" y="480" type="curve" smooth="yes"/>
			<point x="182" y="480" type="line" smooth="yes"/>
			<point x="186.8" y="480"/>
			<point x="190" y="476.8"/>
			<point x="190" y="472" type="curve" smooth="yes"/>
			<point x="190" y="118" type="line"/>
			<point x="430" y="118" type="line"/>
			<point x="430" y="602" type="line"/>
			<point x="77" y="602" type="line" smooth="yes"/>
			<point x="72.2" y="602"/>
			<point x="69" y="605.2"/>
			<point x="69" y="610" type="curve" smooth="yes"/>
			<point x="69" y="712" type="line" smooth="yes"/>
			<point x="69" y="716.8"/>
			<point x="72.197" y="720"/>
			<point x="76.993" y="720" type="curve" smooth="yes"/>
			<point x="490.011" y="720" type="line" smooth="yes"/>
			<point x="526.004" y="720"/>
			<point x="550" y="696.005"/>
			<point x="550" y="660.012" type="curve" smooth="yes"/>
			<point x="550" y="59.988" type="line" smooth="yes"/>
			<point x="550" y="23.995"/>
			<point x="526.005" y="0"/>
			<point x="490.012" y="0" type="curve" smooth="yes"/>
			<point x="78" y="0" type="line" smooth="yes"/>
			<point x="73.2" y="0"/>
			<point x="70" y="3.2"/>
		</contour>
	</outline>
</glyph>
<glyph name="E" format="2">
	<advance width="570"/>
	<unicode hex="0045"/>
	<outline>
		<contour>
			<point x="502" y="601" type="curve" smooth="yes"/>
			<point x="78" y="601" type="line" smooth="yes"/>
			<point x="73.2" y="601"/>
			<point x="70" y="604.2"/>
			<point x="70" y="609" type="curve" smooth="yes"/>
			<point x="70" y="659.549" type="line" smooth="yes"/>
			<point x="70" y="695.819"/>
			<point x="94.181" y="720"/>
			<point x="130.451" y="720" type="curve" smooth="yes"/>
			<point x="502" y="720" type="line" smooth="yes"/>
			<point x="506.8" y="720"/>
			<point x="510" y="716.8"/>
			<point x="510" y="712" type="curve" smooth="yes"/>
			<point x="510" y="609" type="line" smooth="yes"/>
			<point x="510" y="604.2"/>
			<point x="506.8" y="601"/>
		</contour>
		<contour>
			<point x="502" y="0" type="curve" smooth="yes"/>
			<point x="130.451" y="0" type="line" smooth="yes"/>
			<point x="94.181" y="0"/>
			<point x="70" y="24.181"/>
			<point x="70" y="60.452" type="curve" smooth="yes"/>
			<point x="70" y="411" type="line" smooth="yes"/>
			<point x="70" y="415.8"/>
			<point x="73.2" y="419"/>
			<point x="78" y="419" type="curve" smooth="yes"/>
			<point x="502" y="419" type="line" smooth="yes"/>
			<point x="506.8" y="419"/>
			<point x="510" y="415.8"/>
			<point x="510" y="411" type="curve" smooth="yes"/>
			<point x="510" y="309" type="line" smooth="yes"/>
			<point x="510" y="304.2"/>
			<point x="506.8" y="301"/>
			<point x="502" y="301" type="curve" smooth="yes"/>
			<point x="190" y="301" type="line"/>
			<point x="190" y="118" type="line"/>
			<point x="502" y="118" type="line" smooth="yes"/>
			<point x="506.8" y="118"/>
			<point x="510" y="114.8"/>
			<point x="510" y="110" type="curve" smooth="yes"/>
			<point x="510" y="8" type="line" smooth="yes"/>
			<point x="510" y="3.2"/>
			<point x="506.8" y="0"/>
		</contour>
	</outline>
</glyph>
<glyph name="G" format="2">
	<advance width="620"/>
	<unicode hex="0047"/>
	<outline>
		<contour>
			<point x="189.152" y="602" type="line"/>
			<point x="190" y="118" type="line"/>
			<point x="430" y="118" type="line"/>
			<point x="430" y="391" type="line" smooth="yes"/>
			<point x="430" y="395.8"/>
			<point x="433.2" y="399"/>
			<point x="438" y="399" type="curve" smooth="yes"/>
			<point x="489.549" y="399" type="line" smooth="yes"/>
			<point x="525.82" y="399"/>
			<point x="550" y="374.82"/>
			<point x="550" y="338.549" type="curve" smooth="yes"/>
			<point x="550" y="60.451" type="line" smooth="yes"/>
			<point x="550" y="24.18"/>
			<point x="525.82" y="0"/>
			<point x="489.549" y="0" type="curve" smooth="yes"/>
			<point x="130.451" y="0" type="line" smooth="yes"/>
			<point x="94.18" y="0"/>
			<point x="70" y="24.181"/>
			<point x="70" y="60.452" type="curve"/>
			<point x="70" y="659.549" type="line"/>
			<point x="70" y="695.819"/>
			<point x="94.181" y="720"/>
			<point x="130.451" y="720" type="curve" smooth="yes"/>
			<point x="490.549" y="720" type="line" smooth="yes"/>
			<point x="526.819" y="720"/>
			<point x="551" y="695.819"/>
			<point x="551" y="659.549" type="curve" smooth="yes"/>
			<point x="551" y="610" type="line" smooth="yes"/>
			<point x="551" y="605.2"/>
			<point x="547.803" y="602"/>
			<point x="543.007" y="602" type="curve" smooth="yes"/>
		</contour>
	</outline>
</glyph>
<glyph name="O" format="2">
	<advance width="620"/>
	<unicode hex="004F"/>
	<outline>
		<contour>
			<point x="70" y="659.549" type="curve" smooth="yes"/>
			<point x="70" y="60.451" type="line" smooth="yes"/>
			<point x="70" y="24.18"/>
			<point x="94.18" y="0"/>
			<point x="130.451" y="0" type="curve" smooth="yes"/>
			<point x="489.549" y="0" type="line" smooth="yes"/>
			<point x="525.82" y="0"/>
			<point x="550" y="24.18"/>
			<point x="550" y="60.451" type="curve" smooth="yes"/>
			<point x="550" y="659.549" type="line" smooth="yes"/>
			<point x="550" y="695.82"/>
			<point x="525.82" y="720"/>
			<point x="489.549" y="720" type="curve" smooth="yes"/>
			<point x="130.451" y="720" type="line" smooth="yes"/>
			<point x="94.18" y="720"/>
			<point x="70" y="695.82"/>
		</contour>
		<contour>
			<point x="438" y="110" type="line"/>
			<point x="182" y="110" type="line"/>
			<point x="182" y="610" type="line"/>
			<point x="438" y="610" type="line"/>
		</contour>
	</outline>
</glyph>
<glyph name="P" format="2">
	<advance width="570"/>
	<unicode hex="0050"/>
	<outline>
		<contour>
			<point x="70" y="281" type="line"/>
			<point x="439.999" y="281" type="line" smooth="yes"/>
			<point x="476" y="281"/>
			<point x="500" y="305"/>
			<point x="500" y="341" type="curve" smooth="yes"/>
			<point x="500" y="660" type="line" smooth="yes"/>
			<point x="500" y="696"/>
			<point x="476" y="720"/>
			<point x="439.999" y="720" type="curve" smooth="yes"/>
			<point x="78.001" y="720" type="line" smooth="yes"/>
			<point x="73.2" y="720"/>
			<point x="70" y="716.8"/>
			<point x="70" y="712" type="curve" smooth="yes"/>
			<point x="70" y="610" type="line" smooth="yes"/>
			<point x="70" y="605.2"/>
			<point x="73.2" y="602"/>
			<point x="78" y="602" type="curve" smooth="yes"/>
			<point x="380" y="602" type="line"/>
			<point x="380" y="399" type="line"/>
			<point x="78" y="399" type="line" smooth="yes"/>
			<point x="73.2" y="399"/>
			<point x="70" y="395.8"/>
			<point x="70" y="391" type="curve" smooth="yes"/>
		</contour>
		<contour>
			<point x="77.998" y="0" type="curve" smooth="yes"/>
			<point x="192.002" y="0" type="line" smooth="yes"/>
			<point x="196.801" y="0"/>
			<point x="200" y="3.2"/>
			<point x="200" y="8" type="curve" smooth="yes"/>
			<point x="200" y="54.602"/>
			<point x="200" y="289"/>
			<point x="200" y="289" type="curve"/>
			<point x="200" y="289"/>
			<point x="119.92" y="289"/>
			<point x="70" y="289" type="curve"/>
			<point x="70" y="8" type="line" smooth="yes"/>
			<point x="70" y="3.2"/>
			<point x="73.199" y="0"/>
		</contour>
	</outline>
</glyph>
<glyph name="Q" format="2">
	<advance width="640"/>
	<unicode hex="0051"/>
	<outline>
		<contour>
			<point x="572" y="0" type="curve" smooth="yes"/>
			<point x="130.451" y="0" type="line" smooth="yes"/>
			<point x="94.18" y="0"/>
			<point x="70" y="24.18"/>
			<point x="70" y="60.451" type="curve" smooth="yes"/>
			<point x="70" y="659.549" type="line" smooth="yes"/>
			<point x="70" y="695.82"/>
			<point x="94.18" y="720"/>
			<point x="130.451" y="720" type="curve" smooth="yes"/>
			<point x="479.549" y="720" type="line" smooth="yes"/>
			<point x="515.82" y="720"/>
			<point x="540" y="695.819"/>
			<point x="540" y="659.548" type="curve" smooth="yes"/>
			<point x="540" y="246" type="line" smooth="yes"/>
			<point x="540" y="241.2"/>
			<point x="536.8" y="238"/>
			<point x="532" y="238" type="curve" smooth="yes"/>
			<point x="428" y="238" type="line" smooth="yes"/>
			<point x="423.2" y="238"/>
			<point x="420" y="241.2"/>
			<point x="420" y="246" type="curve" smooth="yes"/>
			<point x="420" y="602" type="line"/>
			<point x="190" y="602" type="line"/>
			<point x="190" y="118" type="line"/>
			<point x="572" y="118" type="line" smooth="yes"/>
			<point x="576.8" y="118"/>
			<point x="580" y="114.8"/>
			<point x="580" y="110" type="curve" smooth="yes"/>
			<point x="580" y="8" type="line" smooth="yes"/>
			<point x="580" y="3.2"/>
			<point x="576.8" y="0"/>
		</contour>
	</outline>
</glyph>
<glyph name="T" format="2">
	<advance width="560"/>
	<unicode hex="0054"/>
	<outline>
		<contour>
			<point x="60" y="710.999" type="curve" smooth="yes"/>
			<point x="60" y="605" type="line" smooth="yes"/>
			<point x="60" y="600.2"/>
			<point x="63.2" y="597"/>
			<point x="68" y="597" type="curve" smooth="yes"/>
			<point x="490.997" y="597" type="line" smooth="yes"/>
			<point x="496.399" y="597"/>
			<point x="500" y="600.6"/>
			<point x="500" y="606.001" type="curve" smooth="yes"/>
			<point x="500" y="712" type="line" smooth="yes"/>
			<point x="500" y="716.8"/>
			<point x="496.8" y="720"/>
			<point x="492" y="720" type="curve" smooth="yes"/>
			<point x="69.003" y="720" type="line" smooth="yes"/>
			<point x="63.601" y="720"/>
			<point x="60" y="716.4"/>
		</contour>
		<contour>
			<point x="228" y="475" type="curve" smooth="yes"/>
			<point x="332" y="475" type="line" smooth="yes"/>
			<point x="336.8" y="475"/>
			<point x="340" y="471.8"/>
			<point x="340" y="467" type="curve" smooth="yes"/>
			<point x="340" y="9" type="line" smooth="yes"/>
			<point x="340" y="3.6"/>
			<point x="336.4" y="0"/>
			<point x="331" y="0" type="curve" smooth="yes"/>
			<point x="228" y="0" type="line" smooth="yes"/>
			<point x="223.2" y="0"/>
			<point x="220" y="3.2"/>
			<point x="220" y="8" type="curve" smooth="yes"/>
			<point x="220" y="467" type="line" smooth="yes"/>
			<point x="220" y="471.8"/>
			<point x="223.2" y="475"/>
		</contour>
	</outline>
</glyph>
<glyph name="backslash" format="2">
	<advance width="353.42"/>
	<unicode hex="005C"/>
	<outline>
		<contour>
			<point x="170.346" y="782.486" type="line" smooth="yes"/>
			<point x="175.111" y="783.071"/>
			<point x="178.676" y="780.285"/>
			<point x="179.261" y="775.52" type="curve" smooth="yes"/>
			<point x="283.339" y="-72.114" type="line" smooth="yes"/>
			<point x="283.923" y="-76.878"/>
			<point x="281.137" y="-80.444"/>
			<point x="276.373" y="-81.029" type="curve" smooth="yes"/>
			<point x="183.074" y="-92.486" type="line" smooth="yes"/>
			<point x="178.309" y="-93.071"/>
			<point x="174.744" y="-90.285"/>
			<point x="174.159" y="-85.52" type="curve" smooth="yes"/>
			<point x="70.081" y="762.114" type="line" smooth="yes"/>
			<point x="69.497" y="766.878"/>
			<point x="72.283" y="770.444"/>
			<point x="77.047" y="771.029" type="curve" smooth="yes"/>
		</contour>
	</outline>
</glyph>
<glyph name="A.left" format="2">
	<advance width="393.64"/>
	<outline>
		<contour>
			<point x="-39" y="660.193" type="curve" smooth="yes"/>
			<point x="-99.878" y="246.905" type="line" smooth="yes"/>
			<point x="-100.665" y="241.562"/>
			<point x="-97.59" y="238"/>
			<point x="-92.19" y="238" type="curve" smooth="yes"/>
			<point x="12.81" y="238" type="line" smooth="yes"/>
			<point x="17.61" y="238"/>
			<point x="21.196" y="241.177"/>
			<point x="21.775" y="245.942" type="curve" smooth="yes"/>
			<point x="64.81" y="600" type="line"/>
			<point x="144.81" y="600" type="line"/>
			<point x="216.844" y="7.942" type="line" smooth="yes"/>
			<point x="217.424" y="3.177"/>
			<point x="221.01" y="0"/>
			<point x="225.81" y="0" type="curve" smooth="yes"/>
			<point x="335.81" y="0" type="line" smooth="yes"/>
			<point x="341.21" y="0"/>
			<point x="344.295" y="3.563"/>
			<point x="343.523" y="8.908" type="curve" smooth="yes"/>
			<point x="249.452" y="660.17" type="line" smooth="yes"/>
			<point x="244.267" y="696.068"/>
			<point x="216.629" y="720"/>
			<point x="180.359" y="720" type="curve" smooth="yes"/>
			<point x="30.261" y="720" type="line" smooth="yes"/>
			<point x="-6.009" y="720"/>
			<point x="-33.714" y="696.077"/>
		</contour>
	</outline>
</glyph>
